<?xml version="1.0" encoding="UTF-8" standalone="no"?>
<svg
   xmlns:dc="http://purl.org/dc/elements/1.1/"
   xmlns:cc="http://creativecommons.org/ns#"
   xmlns:rdf="http://www.w3.org/1999/02/22-rdf-syntax-ns#"
   xmlns:svg="http://www.w3.org/2000/svg"
   xmlns="http://www.w3.org/2000/svg"
   enable-background="new 0 0 32 32"
   height="20.0245"
   version="1.1"
   viewBox="0 0 20.047001 20.0245"
   width="20.047001"
   xml:space="preserve"
   id="svg4"><metadata
   id="metadata10"><rdf:RDF><cc:Work
       rdf:about=""><dc:format>image/svg+xml</dc:format><dc:type
         rdf:resource="http://purl.org/dc/dcmitype/StillImage" /><dc:title></dc:title></cc:Work></rdf:RDF></metadata><defs
   id="defs8" />
  <path
   d="m 11.4825,10.02625 8.239,-8.194 c 0.395,-0.391 0.395,-1.024 0,-1.414 -0.394,-0.391 -1.034,-0.391 -1.428,0 l -8.232,8.187 -8.308,-8.309 c -0.394,-0.395 -1.034,-0.395 -1.428,0 -0.394,0.396 -0.394,1.037 0,1.432 l 8.302,8.303 -8.332,8.286 c -0.394,0.391 -0.394,1.024 0,1.414 0.394,0.391 1.034,0.391 1.428,0 l 8.325,-8.279 8.275,8.276 c 0.394,0.395 1.034,0.395 1.428,0 0.394,-0.396 0.394,-1.037 0,-1.432 z"
   fill="#53504c"
   id="path2" />
</svg>
